{
	"asset":{
		"generator":"Khronos glTF Blender I/O v4.3.47",
		"version":"2.0"
	},
	"extensionsUsed":[
		"KHR_materials_specular"
	],
	"scene":0,
	"scenes":[
		{
			"name":"Scene",
			"nodes":[
				3
			]
		}
	],
	"nodes":[
		{
			"mesh":0,
			"name":"Object_2"
		},
		{
			"name":"Object_2.001"
		},
		{
			"children":[
				0,
				1
			],
			"name":"db34da7d842248df9c74d3099234c2b0.obj.cleaner.materialmerger.gle"
		},
		{
			"children":[
				2
			],
			"name":"Sketchfab_model",
			"rotation":[
				-0.70710688829422,
				0,
				0,
				0.7071066498756409
			]
		}
	],
	"materials":[
		{
			"doubleSided":true,
			"extensions":{
				"KHR_materials_specular":{
					"specularFactor":0
				}
			},
			"name":"ImagePaste-230723-161521.002",
			"pbrMetallicRoughness":{
				"baseColorTexture":{
					"index":0
				},
				"metallicFactor":0,
				"roughnessFactor":0.6000000238418579
			}
		}
	],
	"meshes":[
		{
			"name":"Object_0.003",
			"primitives":[
				{
					"attributes":{
						"POSITION":0,
						"NORMAL":1,
						"TEXCOORD_0":2
					},
					"indices":3,
					"material":0
				}
			]
		}
	],
	"textures":[
		{
			"sampler":0,
			"source":0
		}
	],
	"images":[
		{
			"mimeType":"image/png",
			"name":"ImagePaste-230723-161521_baseColor",
			"uri":"textures/ImagePaste-230723-161521_baseColor.png"
		}
	],
	"accessors":[
		{
			"bufferView":0,
			"componentType":5126,
			"count":490,
			"max":[
				0.673454999923706,
				2.2205119132995605,
				2.819456100463867
			],
			"min":[
				-0.673454999923706,
				-1.5954960584640503,
				0.16559399664402008
			],
			"type":"VEC3"
		},
		{
			"bufferView":1,
			"componentType":5126,
			"count":490,
			"type":"VEC3"
		},
		{
			"bufferView":2,
			"componentType":5126,
			"count":490,
			"type":"VEC2"
		},
		{
			"bufferView":3,
			"componentType":5123,
			"count":1602,
			"type":"SCALAR"
		}
	],
	"bufferViews":[
		{
			"buffer":0,
			"byteLength":5880,
			"byteOffset":0,
			"target":34962
		},
		{
			"buffer":0,
			"byteLength":5880,
			"byteOffset":5880,
			"target":34962
		},
		{
			"buffer":0,
			"byteLength":3920,
			"byteOffset":11760,
			"target":34962
		},
		{
			"buffer":0,
			"byteLength":3204,
			"byteOffset":15680,
			"target":34963
		}
	],
	"samplers":[
		{
			"magFilter":9728,
			"minFilter":9984
		}
	],
	"buffers":[
		{
			"byteLength":18884,
			"uri":"criatura.bin"
		}
	]
}
